<?xml version="1.0" encoding="UTF-8"?>
<svg viewBox="0 0 686.93 472.61" xmlns="http://www.w3.org/2000/svg">
 <path d="m685.53 220.8c-0.24097-0.674-0.58301-1.332-1.001-1.937-0.41803-0.60501-0.91199-1.159-1.457-1.624-0.54394-0.465-1.14-0.843-1.761-1.096l-285.35-116.35c-0.41699-0.173-0.84-0.395-1.271-0.671s-0.87-0.607-1.32-1c-0.44998-0.393-0.91199-0.846-1.388-1.367-0.47598-0.521-0.965-1.11-1.471-1.772-0.75299-0.985-1.521-2.131-2.291-3.42-0.76999-1.289-1.543-2.721-2.303-4.277-0.76099-1.556-1.509-3.236-2.23-5.022-0.72202-1.787-1.417-3.678-2.071-5.657-0.659-1.982-1.281-4.05-1.858-6.186-0.57599-2.137-1.107-4.344-1.585-6.602-0.479-2.26-0.90302-4.572-1.268-6.919-0.36401-2.35-0.66699-4.735-0.89999-7.138-0.31601-3.208-0.49301-6.292-0.54102-9.219-0.048981-2.933 0.029999-5.71 0.22601-8.301 0.19501-2.595 0.50601-5.003 0.92099-7.193 0.41501-2.193 0.935-4.168 1.544-5.892 0.30301-0.862 0.629-1.66 0.97299-2.392s0.70602-1.398 1.083-1.996c0.37601-0.599 0.767-1.129 1.167-1.589 0.40002-0.46 0.811-0.851 1.226-1.17 0.074982-0.057 0.14999-0.112 0.22598-0.165 0.076019-0.052999 0.15002-0.104 0.22501-0.151 0.075012-0.049 0.14999-0.095 0.22501-0.139 0.075012-0.044 0.14899-0.085999 0.22501-0.126-123.46 65.965-246.9 131.93-370.35 197.89-0.064 0.033997-0.127 0.070007-0.191 0.10901-0.064 0.038986-0.127 0.079987-0.19 0.12299-0.063001 0.043015-0.126 0.089005-0.189 0.136-0.062 0.048004-0.125 0.098007-0.188 0.15001-0.344 0.29199-0.675 0.662-0.988 1.106s-0.609 0.963-0.884 1.555c-0.274 0.592-0.528 1.257-0.757 1.995-0.229 0.737-0.433 1.545-0.608 2.425-0.355 1.756-0.597 3.787-0.716 6.061-0.12 2.27-0.118 4.78 0.012 7.5 0.13 2.715 0.389 5.639 0.783 8.742 0.394 3.096 0.924 6.369 1.597 9.789 0.501 2.561 1.064 5.11 1.678 7.628 0.614 2.516 1.279 5.001 1.988 7.437 0.708 2.433 1.458 4.817 2.242 7.134 0.783 2.314 1.601 4.562 2.442 6.725 0.836 2.157 1.7 4.228 2.575 6.189 0.875 1.962 1.761 3.814 2.644 5.539 0.883 1.723 1.763 3.317 2.623 4.761 0.861 1.444 1.703 2.737 2.511 3.859 0.544 0.754 1.063 1.43 1.562 2.031 0.499 0.60303 0.977 1.132 1.437 1.596 0.46 0.46402 0.904 0.86099 1.333 1.201 0.429 0.34 0.843 0.62 1.247 0.84998l279.72 156.76c0.617 0.34601 1.223 0.82001 1.791 1.381 0.56699 0.56198 1.097 1.21 1.56 1.904 0.46301 0.69299 0.85901 1.434 1.163 2.179 0.30301 0.74402 0.513 1.493 0.60101 2.205 0.044006 0.358 0.056 0.69 0.037994 0.99298-0.019012 0.30402-0.067017 0.57901-0.143 0.824-0.075989 0.245-0.17999 0.46002-0.30798 0.64401-0.12802 0.18298-0.28201 0.33398-0.457 0.452 121.87-81.857 243.74-163.72 365.6-245.58 0.20001-0.13501 0.38104-0.299 0.53802-0.49 0.15698-0.19099 0.29199-0.41 0.40002-0.65399 0.10797-0.244 0.19-0.513 0.24396-0.806 0.05304-0.29201 0.077026-0.608 0.069031-0.94501-0.014038-0.66899-0.15503-1.359-0.39703-2.032z"/>
 <path d="m297.16 394.96c0.518 4.06 1.193 8.109 2.008 12.109 0.814 3.994 1.768 7.94 2.846 11.803 1.077 3.856 2.278 7.631 3.587 11.284 1.308 3.65 2.725 7.182 4.236 10.558 0.44299 0.98602 0.89398 1.96 1.353 2.921 0.45898 0.95999 0.927 1.906 1.403 2.839 0.47702 0.93301 0.961 1.852 1.455 2.755 0.49399 0.90399 0.996 1.793 1.508 2.667l-273.49-152.13c-0.407-0.229-0.824-0.51001-1.256-0.85001s-0.877-0.73801-1.34-1.203c-0.463-0.465-0.943-0.995-1.444-1.599s-1.022-1.28-1.568-2.037c-0.812-1.124-1.656-2.421-2.52-3.869s-1.745-3.047-2.63-4.776-1.772-3.588-2.648-5.556c-0.876-1.969-1.739-4.047-2.576-6.212-0.841-2.169-1.657-4.425-2.439-6.748-0.783-2.325-1.531-4.719-2.236-7.161-0.706-2.444-1.368-4.938-1.979-7.464-0.61-2.528-1.169-5.088-1.665-7.659-0.667-3.434-1.189-6.721-1.575-9.83-0.387-3.115-0.637-6.052-0.758-8.78-0.122-2.733-0.114-5.255 0.016-7.536 0.129-2.285 0.38-4.326 0.746-6.091 0.18-0.884 0.389-1.697 0.623-2.438 0.234-0.74199 0.493-1.411 0.772-2.006 0.28-0.59599 0.581-1.118 0.898-1.565 0.318-0.44699 0.653-0.819 1.001-1.114 0.354-0.295 0.714-0.51799 1.08-0.67099s0.738-0.23901 1.117-0.261c0.38-0.022003 0.767 0.019989 1.161 0.12 0.395 0.10001 0.798 0.259 1.211 0.472l278.84 144.79c-0.67099 0.80701-1.291 1.716-1.859 2.719-0.56702 1.002-1.084 2.1-1.553 3.284-0.46799 1.183-0.88699 2.453-1.26 3.805-0.37198 1.35-0.69699 2.78-0.978 4.284-0.383 2.081-0.677 4.309-0.87799 6.67-0.20102 2.357-0.30899 4.849-0.32101 7.462-0.011993 2.609 0.072021 5.341 0.25601 8.183 0.18399 2.836 0.46701 5.785 0.854 8.833z" fill="#3f973e"/>
 <path d="m297.16 394.96c0.518 4.06 1.193 8.109 2.008 12.109 0.814 3.994 1.768 7.94 2.846 11.803 1.077 3.856 2.278 7.631 3.587 11.284 1.308 3.65 2.725 7.182 4.236 10.558 0.44299 0.98602 0.89398 1.96 1.353 2.921 0.45898 0.95999 0.927 1.906 1.403 2.839 0.47702 0.93301 0.961 1.852 1.455 2.755 0.49399 0.90399 0.996 1.793 1.508 2.667l-273.49-152.13c-0.407-0.229-0.824-0.51001-1.256-0.85001s-0.877-0.73801-1.34-1.203c-0.463-0.465-0.943-0.995-1.444-1.599s-1.022-1.28-1.568-2.037c-0.812-1.124-1.656-2.421-2.52-3.869s-1.745-3.047-2.63-4.776-1.772-3.588-2.648-5.556c-0.876-1.969-1.739-4.047-2.576-6.212-0.841-2.169-1.657-4.425-2.439-6.748-0.783-2.325-1.531-4.719-2.236-7.161-0.706-2.444-1.368-4.938-1.979-7.464-0.61-2.528-1.169-5.088-1.665-7.659-0.667-3.434-1.189-6.721-1.575-9.83-0.387-3.115-0.637-6.052-0.758-8.78-0.122-2.733-0.114-5.255 0.016-7.536 0.129-2.285 0.38-4.326 0.746-6.091 0.18-0.884 0.389-1.697 0.623-2.438 0.234-0.74199 0.493-1.411 0.772-2.006 0.28-0.59599 0.581-1.118 0.898-1.565 0.318-0.44699 0.653-0.819 1.001-1.114 0.354-0.295 0.714-0.51799 1.08-0.67099s0.738-0.23901 1.117-0.261c0.38-0.022003 0.767 0.019989 1.161 0.12 0.395 0.10001 0.798 0.259 1.211 0.472l278.84 144.79c-0.67099 0.80701-1.291 1.716-1.859 2.719-0.56702 1.002-1.084 2.1-1.553 3.284-0.46799 1.183-0.88699 2.453-1.26 3.805-0.37198 1.35-0.69699 2.78-0.978 4.284-0.383 2.081-0.677 4.309-0.87799 6.67-0.20102 2.357-0.30899 4.849-0.32101 7.462-0.011993 2.609 0.072021 5.341 0.25601 8.183 0.18399 2.836 0.46701 5.785 0.854 8.833z" fill="#fff"/>
 <path d="m378.6 15.184c-0.35202-0.131-0.699-0.229-1.046-0.289-0.34698-0.06-0.69098-0.084001-1.035-0.068001-0.345 0.016001-0.68802 0.071-1.032 0.169-0.34299 0.098-0.68799 0.237-1.032 0.422-118.07 63.111-236.13 126.22-354.2 189.33 0.298-0.159 0.6-0.271 0.906-0.338 0.307-0.068008 0.618-0.091003 0.934-0.072006s0.638 0.07901 0.965 0.17801c0.327 0.099991 0.66 0.23799 0.999 0.41299l278.84 144.79 360.36-226.92-284.66-107.61z" fill="#3f973e"/>
 <path d="m664.59 216.43c-0.43097-0.80701-0.85101-1.628-1.259-2.464-0.409-0.836-0.80804-1.687-1.195-2.551-0.388-0.86401-0.76599-1.743-1.133-2.635-1.252-3.051-2.388-6.262-3.396-9.6-1.008-3.34-1.887-6.808-2.625-10.368-0.73804-3.565-1.336-7.225-1.778-10.945-0.44403-3.726-0.732-7.514-0.854-11.33-0.088013-2.864-0.075989-5.645 0.030029-8.33 0.10498-2.689 0.30695-5.284 0.59698-7.773 0.29102-2.493 0.67096-4.879 1.135-7.148 0.46497-2.273 1.015-4.427 1.644-6.453 0.45801-1.464 0.95599-2.862 1.496-4.189 0.539-1.329 1.12-2.585 1.743-3.764 0.62396-1.18 1.29-2.282 2-3.299 0.70996-1.019 1.465-1.952 2.264-2.795l-360.36 226.92c-0.67102 0.80701-1.291 1.716-1.859 2.719-0.56702 1.002-1.084 2.1-1.553 3.284-0.46799 1.183-0.88699 2.453-1.26 3.805-0.37198 1.35-0.69699 2.78-0.978 4.284-0.383 2.081-0.677 4.309-0.87799 6.67-0.20099 2.357-0.30899 4.849-0.32098 7.462-0.012024 2.609 0.071991 5.341 0.25598 8.183 0.18399 2.838 0.46701 5.786 0.854 8.834 0.518 4.06 1.193 8.109 2.008 12.109 0.814 3.994 1.768 7.94 2.846 11.803 1.077 3.856 2.278 7.631 3.587 11.284 1.308 3.65 2.725 7.182 4.236 10.558 0.44299 0.98602 0.89401 1.96 1.353 2.921 0.45902 0.95999 0.927 1.906 1.403 2.839 0.47699 0.93301 0.961 1.852 1.455 2.755 0.49399 0.90399 0.996 1.793 1.508 2.667l350.36-233.08c-0.45203-0.776-0.893-1.568-1.324-2.374z" fill="#e2e3e4"/>
 <path d="m683.05 115.13c-0.24805-0.699-0.60004-1.377-1.028-1.996-0.42999-0.619-0.93701-1.179-1.495-1.644-0.55804-0.465-1.17-0.834-1.808-1.071l-292.02-108.68c-0.76599-0.285-1.512-0.483-2.235-0.602-0.724-0.118-1.425-0.157-2.102-0.122s-1.329 0.144-1.955 0.319c-0.625 0.175-1.225 0.417-1.795 0.72-123.69 65.605-247.39 131.21-371.08 196.81 0.488-0.259 1.011-0.451 1.565-0.57001 0.554-0.119 1.142-0.16299 1.761-0.127 0.619 0.035004 1.27 0.151 1.95 0.354 0.681 0.203 1.391 0.494 2.13 0.877l285.76 148.46c0.63199 0.32901 1.254 0.79501 1.837 1.357 0.58298 0.56201 1.127 1.221 1.604 1.933 0.47699 0.71201 0.88599 1.477 1.199 2.254 0.31302 0.776 0.53101 1.563 0.625 2.319 0.050018 0.405 0.062012 0.78 0.040009 1.123-0.02301 0.34302-0.079987 0.65302-0.16901 0.93002-0.088989 0.27698-0.20898 0.518-0.358 0.72299-0.14798 0.20401-0.32599 0.371-0.52798 0.49899 125.69-79.508 251.38-159.01 377.07-238.51 0.229-0.145 0.43701-0.325 0.61798-0.536 0.18103-0.211 0.336-0.45499 0.461-0.728 0.125-0.273 0.22101-0.574 0.28204-0.902 0.061951-0.328 0.090942-0.682 0.08197-1.06-0.015991-0.706-0.16199-1.427-0.40997-2.127z"/>
 <path d="m14.937 199.4l285.76 148.46c0.63199 0.32901 1.254 0.79501 1.837 1.357 0.58298 0.56201 1.127 1.221 1.604 1.933 0.47699 0.71201 0.88599 1.477 1.199 2.254 0.31302 0.776 0.53101 1.563 0.625 2.319 0.094025 0.75699 0.055023 1.409-0.095978 1.942-0.151 0.53302-0.41302 0.94601-0.76602 1.224-0.353 0.27698-0.79599 0.41898-1.309 0.40799-0.513-0.01001-1.095-0.172-1.726-0.50299l-285.15-149.28c-0.409-0.213-0.81-0.37199-1.201-0.47299-0.391-0.10101-0.775-0.14401-1.151-0.123-0.375 0.020996-0.744 0.105-1.105 0.25699-0.362 0.15201-0.717 0.37201-1.067 0.66501-0.344 0.29199-0.675 0.662-0.988 1.106s-0.609 0.963-0.884 1.555c-0.274 0.592-0.528 1.257-0.757 1.995-0.229 0.737-0.433 1.545-0.608 2.425-0.355 1.756-0.597 3.787-0.716 6.061-0.12 2.27-0.118 4.78 0.012 7.5 0.13 2.715 0.389 5.639 0.783 8.742 0.394 3.096 0.924 6.369 1.597 9.789 0.501 2.561 1.064 5.11 1.678 7.628 0.614 2.516 1.279 5.001 1.988 7.437 0.708 2.433 1.458 4.817 2.242 7.134 0.783 2.314 1.601 4.562 2.442 6.725 0.836 2.157 1.7 4.228 2.575 6.189 0.875 1.962 1.761 3.814 2.644 5.539 0.883 1.723 1.763 3.317 2.623 4.761 0.861 1.444 1.703 2.737 2.511 3.859 0.544 0.754 1.063 1.43 1.562 2.031 0.499 0.60303 0.977 1.132 1.437 1.596 0.46 0.46402 0.904 0.86099 1.333 1.201 0.429 0.34 0.843 0.62 1.247 0.84998l279.72 156.76c0.617 0.34601 1.223 0.82001 1.791 1.381 0.56699 0.56198 1.097 1.21 1.56 1.904 0.46301 0.69299 0.85901 1.434 1.163 2.179 0.30301 0.74402 0.513 1.493 0.60101 2.205 0.087982 0.71201 0.046997 1.319-0.103 1.808-0.15002 0.48901-0.40802 0.85901-0.754 1.097-0.34601 0.23801-0.78101 0.34201-1.282 0.301-0.50101-0.040985-1.07-0.229-1.686-0.57599l-279.16-157.49c-0.897-0.50601-1.8-1.127-2.701-1.845-0.9-0.71902-1.799-1.535-2.689-2.432-0.889-0.897-1.769-1.875-2.633-2.918-0.863-1.042-1.71-2.149-2.533-3.305-0.831-1.161-1.645-2.375-2.443-3.637s-1.581-2.572-2.348-3.927c-0.768-1.354-1.52-2.753-2.257-4.191-0.737-1.439-1.46-2.919-2.168-4.434-1.412-3.031-2.77-6.215-4.058-9.517-1.289-3.306-2.509-6.73-3.645-10.242-1.137-3.516-2.189-7.119-3.143-10.776-0.955-3.663-1.812-7.382-2.553-11.12-0.554-2.807-1.023-5.527-1.41-8.152-0.387-2.629-0.691-5.163-0.914-7.589-0.223-2.43-0.364-4.753-0.426-6.958-0.062-2.208-0.043-4.299 0.054-6.259 0.103-1.959 0.28-3.794 0.538-5.488 0.258-1.696 0.597-3.251 1.021-4.648 0.425-1.399 0.935-2.639 1.537-3.704 0.603-1.066 1.297-1.957 2.088-2.655 0.523-0.463 1.098-0.83299 1.724-1.1s1.303-0.42801 2.028-0.47401c0.726-0.044998 1.499 0.026001 2.318 0.227 0.819 0.203 1.684 0.533 2.593 1.005z" fill="#3f3f3f"/>
</svg>
